# xmcd
#
# Track frame offsets: 
#        150
#        23916
#        43771
#        68176
#        93166
#        114782
#        129664
#        148857
#        165255
#        186197
#
# Disc length: 2859 seconds
#
# Revision: 0
# Processed by: cddbd v1.5.2PL0 Copyright (c) Steve Scherf et al.
# Submitted via: ExactAudioCopy v1.1
#
DISCID=810b290a
DTITLE=堀込泰行 - ONE
DYEAR=2016
DGENRE=JPop
TTITLE0=New Day
TTITLE1=Shiny
TTITLE2=Waltz
TTITLE3=Wah Wah Wah
TTITLE4=ブランニュー・ソング
TTITLE5=Jubilee
TTITLE6=さよならテディベア
TTITLE7=Buffalo
TTITLE8=最後の週末
TTITLE9=僕らのかたち
EXTD=
EXTT0=
EXTT1=
EXTT2=
EXTT3=
EXTT4=
EXTT5=
EXTT6=
EXTT7=
EXTT8=
EXTT9=
PLAYORDER=
